<svg xmlns="http://www.w3.org/2000/svg" viewBox="0 0 1120 560" width="1120" height="560" font-family="-apple-system, BlinkMacSystemFont, 'PingFang SC', 'Helvetica Neue', 'Microsoft YaHei', Arial, sans-serif">
<defs><marker id="ar" markerWidth="8" markerHeight="8" refX="7" refY="4" orient="auto"><path d="M0,0 L8,4 L0,8 z" fill="#9ca3af"/></marker></defs>
<rect x="0" y="0" width="1120" height="560" fill="#ffffff"/>
<text x="30.0" y="32.0" font-size="19" fill="#111827" text-anchor="start" font-weight="700">Aligned RoPE：把视频的位置刻度换算成音频的单位</text>
<text x="30.0" y="54.0" font-size="13" fill="#6b7280" text-anchor="start">紫 = 视频潜帧；黄 = 音频潜帧；灰线 = 朴素索引下被当成同一位置的一对；绿线 = 对齐后真正同一时刻的一对。只画前 1 秒。</text>
<text x="30.0" y="96.0" font-size="14" fill="#111827" text-anchor="start" font-weight="700">(a) 朴素索引：两边各按自己的序号编 RoPE 位置</text>
<text x="140.0" y="142.0" font-size="13" fill="#111827" text-anchor="end">视频</text>
<text x="140.0" y="202.0" font-size="13" fill="#111827" text-anchor="end">音频</text>
<rect x="156.0" y="186" width="8" height="22" rx="2" fill="#fdf1dc" stroke="#d4a24c"/>
<rect x="174.0" y="186" width="8" height="22" rx="2" fill="#fdf1dc" stroke="#d4a24c"/>
<rect x="192.0" y="186" width="8" height="22" rx="2" fill="#fdf1dc" stroke="#d4a24c"/>
<rect x="210.0" y="186" width="8" height="22" rx="2" fill="#fdf1dc" stroke="#d4a24c"/>
<rect x="228.0" y="186" width="8" height="22" rx="2" fill="#fdf1dc" stroke="#d4a24c"/>
<rect x="246.0" y="186" width="8" height="22" rx="2" fill="#fdf1dc" stroke="#d4a24c"/>
<rect x="264.0" y="186" width="8" height="22" rx="2" fill="#fdf1dc" stroke="#d4a24c"/>
<rect x="282.0" y="186" width="8" height="22" rx="2" fill="#fdf1dc" stroke="#d4a24c"/>
<rect x="300.0" y="186" width="8" height="22" rx="2" fill="#fdf1dc" stroke="#d4a24c"/>
<rect x="318.0" y="186" width="8" height="22" rx="2" fill="#fdf1dc" stroke="#d4a24c"/>
<rect x="336.0" y="186" width="8" height="22" rx="2" fill="#fdf1dc" stroke="#d4a24c"/>
<rect x="354.0" y="186" width="8" height="22" rx="2" fill="#fdf1dc" stroke="#d4a24c"/>
<rect x="372.0" y="186" width="8" height="22" rx="2" fill="#fdf1dc" stroke="#d4a24c"/>
<rect x="390.0" y="186" width="8" height="22" rx="2" fill="#fdf1dc" stroke="#d4a24c"/>
<rect x="408.0" y="186" width="8" height="22" rx="2" fill="#fdf1dc" stroke="#d4a24c"/>
<rect x="426.0" y="186" width="8" height="22" rx="2" fill="#fdf1dc" stroke="#d4a24c"/>
<rect x="444.0" y="186" width="8" height="22" rx="2" fill="#fdf1dc" stroke="#d4a24c"/>
<rect x="462.0" y="186" width="8" height="22" rx="2" fill="#fdf1dc" stroke="#d4a24c"/>
<rect x="480.0" y="186" width="8" height="22" rx="2" fill="#fdf1dc" stroke="#d4a24c"/>
<rect x="498.0" y="186" width="8" height="22" rx="2" fill="#fdf1dc" stroke="#d4a24c"/>
<rect x="516.0" y="186" width="8" height="22" rx="2" fill="#fdf1dc" stroke="#d4a24c"/>
<rect x="534.0" y="186" width="8" height="22" rx="2" fill="#fdf1dc" stroke="#d4a24c"/>
<rect x="552.0" y="186" width="8" height="22" rx="2" fill="#fdf1dc" stroke="#d4a24c"/>
<rect x="570.0" y="186" width="8" height="22" rx="2" fill="#fdf1dc" stroke="#d4a24c"/>
<rect x="588.0" y="186" width="8" height="22" rx="2" fill="#fdf1dc" stroke="#d4a24c"/>
<rect x="606.0" y="186" width="8" height="22" rx="2" fill="#fdf1dc" stroke="#d4a24c"/>
<rect x="624.0" y="186" width="8" height="22" rx="2" fill="#fdf1dc" stroke="#d4a24c"/>
<rect x="642.0" y="186" width="8" height="22" rx="2" fill="#fdf1dc" stroke="#d4a24c"/>
<rect x="660.0" y="186" width="8" height="22" rx="2" fill="#fdf1dc" stroke="#d4a24c"/>
<rect x="678.0" y="186" width="8" height="22" rx="2" fill="#fdf1dc" stroke="#d4a24c"/>
<rect x="696.0" y="186" width="8" height="22" rx="2" fill="#fdf1dc" stroke="#d4a24c"/>
<rect x="714.0" y="186" width="8" height="22" rx="2" fill="#fdf1dc" stroke="#d4a24c"/>
<rect x="732.0" y="186" width="8" height="22" rx="2" fill="#fdf1dc" stroke="#d4a24c"/>
<rect x="750.0" y="186" width="8" height="22" rx="2" fill="#fdf1dc" stroke="#d4a24c"/>
<rect x="768.0" y="186" width="8" height="22" rx="2" fill="#fdf1dc" stroke="#d4a24c"/>
<rect x="786.0" y="186" width="8" height="22" rx="2" fill="#fdf1dc" stroke="#d4a24c"/>
<rect x="804.0" y="186" width="8" height="22" rx="2" fill="#fdf1dc" stroke="#d4a24c"/>
<rect x="822.0" y="186" width="8" height="22" rx="2" fill="#fdf1dc" stroke="#d4a24c"/>
<rect x="840.0" y="186" width="8" height="22" rx="2" fill="#fdf1dc" stroke="#d4a24c"/>
<rect x="858.0" y="186" width="8" height="22" rx="2" fill="#fdf1dc" stroke="#d4a24c"/>
<rect x="876.0" y="186" width="8" height="22" rx="2" fill="#fdf1dc" stroke="#d4a24c"/>
<rect x="894.0" y="186" width="8" height="22" rx="2" fill="#fdf1dc" stroke="#d4a24c"/>
<rect x="912.0" y="186" width="8" height="22" rx="2" fill="#fdf1dc" stroke="#d4a24c"/>
<rect x="930.0" y="186" width="8" height="22" rx="2" fill="#fdf1dc" stroke="#d4a24c"/>
<rect x="948.0" y="186" width="8" height="22" rx="2" fill="#fdf1dc" stroke="#d4a24c"/>
<rect x="966.0" y="186" width="8" height="22" rx="2" fill="#fdf1dc" stroke="#d4a24c"/>
<rect x="984.0" y="186" width="8" height="22" rx="2" fill="#fdf1dc" stroke="#d4a24c"/>
<rect x="1002.0" y="186" width="8" height="22" rx="2" fill="#fdf1dc" stroke="#d4a24c"/>
<rect x="1020.0" y="186" width="8" height="22" rx="2" fill="#fdf1dc" stroke="#d4a24c"/>
<rect x="1038.0" y="186" width="8" height="22" rx="2" fill="#fdf1dc" stroke="#d4a24c"/>
<rect x="1056.0" y="186" width="8" height="22" rx="2" fill="#fdf1dc" stroke="#d4a24c"/>
<text x="160.0" y="224.0" font-size="11" fill="#6b7280" text-anchor="middle">0</text>
<text x="250.0" y="224.0" font-size="11" fill="#6b7280" text-anchor="middle">5</text>
<text x="340.0" y="224.0" font-size="11" fill="#6b7280" text-anchor="middle">10</text>
<text x="430.0" y="224.0" font-size="11" fill="#6b7280" text-anchor="middle">15</text>
<text x="520.0" y="224.0" font-size="11" fill="#6b7280" text-anchor="middle">20</text>
<text x="610.0" y="224.0" font-size="11" fill="#6b7280" text-anchor="middle">25</text>
<text x="700.0" y="224.0" font-size="11" fill="#6b7280" text-anchor="middle">30</text>
<text x="790.0" y="224.0" font-size="11" fill="#6b7280" text-anchor="middle">35</text>
<text x="880.0" y="224.0" font-size="11" fill="#6b7280" text-anchor="middle">40</text>
<text x="970.0" y="224.0" font-size="11" fill="#6b7280" text-anchor="middle">45</text>
<text x="1060.0" y="224.0" font-size="11" fill="#6b7280" text-anchor="middle">50</text>
<rect x="152.0" y="126" width="16" height="22" rx="2" fill="#ecebfb" stroke="#8f8bd8"/>
<text x="160.0" y="120.0" font-size="11" fill="#6b7280" text-anchor="middle">0</text>
<rect x="302.0" y="126" width="16" height="22" rx="2" fill="#ecebfb" stroke="#8f8bd8"/>
<text x="310.0" y="120.0" font-size="11" fill="#6b7280" text-anchor="middle">1</text>
<rect x="452.0" y="126" width="16" height="22" rx="2" fill="#ecebfb" stroke="#8f8bd8"/>
<text x="460.0" y="120.0" font-size="11" fill="#6b7280" text-anchor="middle">2</text>
<rect x="602.0" y="126" width="16" height="22" rx="2" fill="#ecebfb" stroke="#8f8bd8"/>
<text x="610.0" y="120.0" font-size="11" fill="#6b7280" text-anchor="middle">3</text>
<rect x="752.0" y="126" width="16" height="22" rx="2" fill="#ecebfb" stroke="#8f8bd8"/>
<text x="760.0" y="120.0" font-size="11" fill="#6b7280" text-anchor="middle">4</text>
<rect x="902.0" y="126" width="16" height="22" rx="2" fill="#ecebfb" stroke="#8f8bd8"/>
<text x="910.0" y="120.0" font-size="11" fill="#6b7280" text-anchor="middle">5</text>
<rect x="1052.0" y="126" width="16" height="22" rx="2" fill="#ecebfb" stroke="#8f8bd8"/>
<text x="1060.0" y="120.0" font-size="11" fill="#6b7280" text-anchor="middle">6</text>
<line x1="160.0" y1="232.0" x2="1060.0" y2="232.0" stroke="#cbd2d9" stroke-width="1.2"/>
<text x="160.0" y="248.0" font-size="11" fill="#9ca3af" text-anchor="middle">0 s</text>
<text x="610.0" y="248.0" font-size="11" fill="#9ca3af" text-anchor="middle">0.5 s</text>
<text x="1060.0" y="248.0" font-size="11" fill="#9ca3af" text-anchor="middle">1 s</text>
<line x1="610.0" y1="148.0" x2="214.0" y2="186.0" stroke="#b9b9b9" stroke-width="1.6"/>
<text x="660.0" y="176.0" font-size="13" fill="#111827" text-anchor="start">都叫「位置 3」：视频第 3 帧在 0.5 秒，音频第 3 帧在 0.06 秒</text>
<text x="30.0" y="296.0" font-size="14" fill="#111827" text-anchor="start" font-weight="700">(b) Aligned RoPE：视频位置 = s × i，s = f_a / f_v ≈ 50 / 6 ≈ 8.33</text>
<text x="140.0" y="342.0" font-size="13" fill="#111827" text-anchor="end">视频</text>
<text x="140.0" y="402.0" font-size="13" fill="#111827" text-anchor="end">音频</text>
<rect x="156.0" y="386" width="8" height="22" rx="2" fill="#fdf1dc" stroke="#d4a24c"/>
<rect x="174.0" y="386" width="8" height="22" rx="2" fill="#fdf1dc" stroke="#d4a24c"/>
<rect x="192.0" y="386" width="8" height="22" rx="2" fill="#fdf1dc" stroke="#d4a24c"/>
<rect x="210.0" y="386" width="8" height="22" rx="2" fill="#fdf1dc" stroke="#d4a24c"/>
<rect x="228.0" y="386" width="8" height="22" rx="2" fill="#fdf1dc" stroke="#d4a24c"/>
<rect x="246.0" y="386" width="8" height="22" rx="2" fill="#fdf1dc" stroke="#d4a24c"/>
<rect x="264.0" y="386" width="8" height="22" rx="2" fill="#fdf1dc" stroke="#d4a24c"/>
<rect x="282.0" y="386" width="8" height="22" rx="2" fill="#fdf1dc" stroke="#d4a24c"/>
<rect x="300.0" y="386" width="8" height="22" rx="2" fill="#fdf1dc" stroke="#d4a24c"/>
<rect x="318.0" y="386" width="8" height="22" rx="2" fill="#fdf1dc" stroke="#d4a24c"/>
<rect x="336.0" y="386" width="8" height="22" rx="2" fill="#fdf1dc" stroke="#d4a24c"/>
<rect x="354.0" y="386" width="8" height="22" rx="2" fill="#fdf1dc" stroke="#d4a24c"/>
<rect x="372.0" y="386" width="8" height="22" rx="2" fill="#fdf1dc" stroke="#d4a24c"/>
<rect x="390.0" y="386" width="8" height="22" rx="2" fill="#fdf1dc" stroke="#d4a24c"/>
<rect x="408.0" y="386" width="8" height="22" rx="2" fill="#fdf1dc" stroke="#d4a24c"/>
<rect x="426.0" y="386" width="8" height="22" rx="2" fill="#fdf1dc" stroke="#d4a24c"/>
<rect x="444.0" y="386" width="8" height="22" rx="2" fill="#fdf1dc" stroke="#d4a24c"/>
<rect x="462.0" y="386" width="8" height="22" rx="2" fill="#fdf1dc" stroke="#d4a24c"/>
<rect x="480.0" y="386" width="8" height="22" rx="2" fill="#fdf1dc" stroke="#d4a24c"/>
<rect x="498.0" y="386" width="8" height="22" rx="2" fill="#fdf1dc" stroke="#d4a24c"/>
<rect x="516.0" y="386" width="8" height="22" rx="2" fill="#fdf1dc" stroke="#d4a24c"/>
<rect x="534.0" y="386" width="8" height="22" rx="2" fill="#fdf1dc" stroke="#d4a24c"/>
<rect x="552.0" y="386" width="8" height="22" rx="2" fill="#fdf1dc" stroke="#d4a24c"/>
<rect x="570.0" y="386" width="8" height="22" rx="2" fill="#fdf1dc" stroke="#d4a24c"/>
<rect x="588.0" y="386" width="8" height="22" rx="2" fill="#fdf1dc" stroke="#d4a24c"/>
<rect x="606.0" y="386" width="8" height="22" rx="2" fill="#fdf1dc" stroke="#d4a24c"/>
<rect x="624.0" y="386" width="8" height="22" rx="2" fill="#fdf1dc" stroke="#d4a24c"/>
<rect x="642.0" y="386" width="8" height="22" rx="2" fill="#fdf1dc" stroke="#d4a24c"/>
<rect x="660.0" y="386" width="8" height="22" rx="2" fill="#fdf1dc" stroke="#d4a24c"/>
<rect x="678.0" y="386" width="8" height="22" rx="2" fill="#fdf1dc" stroke="#d4a24c"/>
<rect x="696.0" y="386" width="8" height="22" rx="2" fill="#fdf1dc" stroke="#d4a24c"/>
<rect x="714.0" y="386" width="8" height="22" rx="2" fill="#fdf1dc" stroke="#d4a24c"/>
<rect x="732.0" y="386" width="8" height="22" rx="2" fill="#fdf1dc" stroke="#d4a24c"/>
<rect x="750.0" y="386" width="8" height="22" rx="2" fill="#fdf1dc" stroke="#d4a24c"/>
<rect x="768.0" y="386" width="8" height="22" rx="2" fill="#fdf1dc" stroke="#d4a24c"/>
<rect x="786.0" y="386" width="8" height="22" rx="2" fill="#fdf1dc" stroke="#d4a24c"/>
<rect x="804.0" y="386" width="8" height="22" rx="2" fill="#fdf1dc" stroke="#d4a24c"/>
<rect x="822.0" y="386" width="8" height="22" rx="2" fill="#fdf1dc" stroke="#d4a24c"/>
<rect x="840.0" y="386" width="8" height="22" rx="2" fill="#fdf1dc" stroke="#d4a24c"/>
<rect x="858.0" y="386" width="8" height="22" rx="2" fill="#fdf1dc" stroke="#d4a24c"/>
<rect x="876.0" y="386" width="8" height="22" rx="2" fill="#fdf1dc" stroke="#d4a24c"/>
<rect x="894.0" y="386" width="8" height="22" rx="2" fill="#fdf1dc" stroke="#d4a24c"/>
<rect x="912.0" y="386" width="8" height="22" rx="2" fill="#fdf1dc" stroke="#d4a24c"/>
<rect x="930.0" y="386" width="8" height="22" rx="2" fill="#fdf1dc" stroke="#d4a24c"/>
<rect x="948.0" y="386" width="8" height="22" rx="2" fill="#fdf1dc" stroke="#d4a24c"/>
<rect x="966.0" y="386" width="8" height="22" rx="2" fill="#fdf1dc" stroke="#d4a24c"/>
<rect x="984.0" y="386" width="8" height="22" rx="2" fill="#fdf1dc" stroke="#d4a24c"/>
<rect x="1002.0" y="386" width="8" height="22" rx="2" fill="#fdf1dc" stroke="#d4a24c"/>
<rect x="1020.0" y="386" width="8" height="22" rx="2" fill="#fdf1dc" stroke="#d4a24c"/>
<rect x="1038.0" y="386" width="8" height="22" rx="2" fill="#fdf1dc" stroke="#d4a24c"/>
<rect x="1056.0" y="386" width="8" height="22" rx="2" fill="#fdf1dc" stroke="#d4a24c"/>
<text x="160.0" y="424.0" font-size="11" fill="#6b7280" text-anchor="middle">0</text>
<text x="250.0" y="424.0" font-size="11" fill="#6b7280" text-anchor="middle">5</text>
<text x="340.0" y="424.0" font-size="11" fill="#6b7280" text-anchor="middle">10</text>
<text x="430.0" y="424.0" font-size="11" fill="#6b7280" text-anchor="middle">15</text>
<text x="520.0" y="424.0" font-size="11" fill="#6b7280" text-anchor="middle">20</text>
<text x="610.0" y="424.0" font-size="11" fill="#6b7280" text-anchor="middle">25</text>
<text x="700.0" y="424.0" font-size="11" fill="#6b7280" text-anchor="middle">30</text>
<text x="790.0" y="424.0" font-size="11" fill="#6b7280" text-anchor="middle">35</text>
<text x="880.0" y="424.0" font-size="11" fill="#6b7280" text-anchor="middle">40</text>
<text x="970.0" y="424.0" font-size="11" fill="#6b7280" text-anchor="middle">45</text>
<text x="1060.0" y="424.0" font-size="11" fill="#6b7280" text-anchor="middle">50</text>
<rect x="152.0" y="326" width="16" height="22" rx="2" fill="#ecebfb" stroke="#8f8bd8"/>
<text x="160.0" y="320.0" font-size="11" fill="#6b7280" text-anchor="middle">0</text>
<rect x="302.0" y="326" width="16" height="22" rx="2" fill="#ecebfb" stroke="#8f8bd8"/>
<text x="310.0" y="320.0" font-size="11" fill="#6b7280" text-anchor="middle">8.3</text>
<rect x="452.0" y="326" width="16" height="22" rx="2" fill="#ecebfb" stroke="#8f8bd8"/>
<text x="460.0" y="320.0" font-size="11" fill="#6b7280" text-anchor="middle">16.7</text>
<rect x="602.0" y="326" width="16" height="22" rx="2" fill="#ecebfb" stroke="#8f8bd8"/>
<text x="610.0" y="320.0" font-size="11" fill="#6b7280" text-anchor="middle">25</text>
<rect x="752.0" y="326" width="16" height="22" rx="2" fill="#ecebfb" stroke="#8f8bd8"/>
<text x="760.0" y="320.0" font-size="11" fill="#6b7280" text-anchor="middle">33.3</text>
<rect x="902.0" y="326" width="16" height="22" rx="2" fill="#ecebfb" stroke="#8f8bd8"/>
<text x="910.0" y="320.0" font-size="11" fill="#6b7280" text-anchor="middle">41.7</text>
<rect x="1052.0" y="326" width="16" height="22" rx="2" fill="#ecebfb" stroke="#8f8bd8"/>
<text x="1060.0" y="320.0" font-size="11" fill="#6b7280" text-anchor="middle">50</text>
<line x1="160.0" y1="432.0" x2="1060.0" y2="432.0" stroke="#cbd2d9" stroke-width="1.2"/>
<text x="160.0" y="448.0" font-size="11" fill="#9ca3af" text-anchor="middle">0 s</text>
<text x="610.0" y="448.0" font-size="11" fill="#9ca3af" text-anchor="middle">0.5 s</text>
<text x="1060.0" y="448.0" font-size="11" fill="#9ca3af" text-anchor="middle">1 s</text>
<line x1="610.0" y1="348.0" x2="610.0" y2="386.0" stroke="#5fa886" stroke-width="2"/>
<text x="624.0" y="376.0" font-size="13" fill="#111827" text-anchor="start">都是「位置 25」：同一个 0.5 秒</text>
<text x="30.0" y="482.0" font-size="13" fill="#6b7280" text-anchor="start">据 PDF p. 4 的公式重画。潜帧率数值取自官方代码与权重配置（外部补充）：音频潜变量每秒 50 帧；视频 24 fps、VAE 时间下采样 4 倍，每秒 6 帧。</text>
<text x="30.0" y="506.0" font-size="13" fill="#6b7280" text-anchor="start">报告正文没有给 f_v、f_a、s 的数值。8.05 秒片段里视频有 49 个潜帧、音频约 403 个（本文按配置推算）。</text>
<text x="30.0" y="536.0" font-size="11" fill="#9ca3af" text-anchor="start">视频第一帧在 VAE 里单独成帧，官方配置没有为它做偏移（apply_first_frame_bias_in_rope = false），图中按均匀刻度画。</text>
</svg>
